<svg width="64" height="64" viewBox="0 0 64 64" fill="none" xmlns="http://www.w3.org/2000/svg">
  <rect width="64" height="64" rx="12" fill="#111827"/>
  <path d="M18 38c2.5 3 6.5 5 12 5 6.5 0 10-2.7 10-6.5 0-3.6-2.7-5.2-8.8-6.2l-2.4-.4c-7-1.1-10.8-3.7-10.8-9 0-6 5.7-10.3 14.6-10.3 6 0 10.7 1.8 13.5 4.8l-4.1 3.6c-2.3-2.1-5.6-3.2-9.6-3.2-5.1 0-8.2 2-8.2 5 0 3 2.4 4.3 7.9 5.2l2.5.4c8.4 1.4 12 4.1 12 9.8 0 6.7-6 11-15.8 11-7 0-12.6-2.2-15.8-6L18 38z" fill="#f59e0b"/>
  <circle cx="50" cy="50" r="6" fill="#0ea5e9"/>
</svg>

